# xmcd
#
# Track frame offsets:
#	150
#	11175
#	24600
#	32923
#	40723
#	56548
#	72824
#	82049
#	93673
#	105224
#	124574
#	142649
#	151500
#	166200
#	185700
#
# Disc length: 2551 seconds
#
# Revision: 0
# Processed by: cddbd v1.5PL3 Copyright (c) Steve Scherf et al.
# Submitted via: EasyCDDAExtractor 4.6.9.1
#
DISCID=b309f50f
DTITLE=Robert Shafer with Randy Howard -  Swingin' Appalachian Style
DYEAR=1900
DGENRE=country
TTITLE0=Sally Johnson
TTITLE1=Little Rock Getaway
TTITLE2=Tammy
TTITLE3=Snowflake Reel
TTITLE4=Bill Bailey
TTITLE5=Westphalia Waltz
TTITLE6=Shelbourne Reel
TTITLE7=Turkey In the Straw
TTITLE8=Sally Ann
TTITLE9=Estrellita
TTITLE10=Big Al's Breakdown
TTITLE11=Wild Fiddler's Rag
TTITLE12=When I Grow Too Old To Dream
TTITLE13=Back Home In Indiana
TTITLE14=Sally Johnson - Reprise
EXTD=
EXTT0=
EXTT1=
EXTT2=
EXTT3=
EXTT4=
EXTT5=
EXTT6=
EXTT7=
EXTT8=
EXTT9=
EXTT10=
EXTT11=
EXTT12=
EXTT13=
EXTT14=
PLAYORDER=
